<svg id="Layer_1" data-name="Layer 1" xmlns="http://www.w3.org/2000/svg" xmlns:xlink="http://www.w3.org/1999/xlink" viewBox="0 0 144 39.32"><defs><style>.cls-1{fill:none;}.cls-2{fill:#57c1ac;}.cls-3{fill:#ed5b3d;}.cls-4{clip-path:url(#clip-path);}.cls-5{fill:#363635;}.cls-6{fill:#bfb4b2;}.cls-7{fill:#68cdeb;}.cls-8{fill:#fffef1;}</style><clipPath id="clip-path"><polygon class="cls-1" points="6.37 13.59 15.96 19.13 15.96 30.07 6.37 24.68 6.37 13.59"/></clipPath></defs><title>LOGO</title><polygon class="cls-2" points="32.03 9.49 18.18 17.6 18.18 33.6 32.03 25.58 32.03 9.49"/><polygon class="cls-3" points="4.16 9.49 18.18 17.6 18.18 33.6 4.16 25.71 4.16 9.49"/><g class="cls-4"><polygon class="cls-5" points="6.37 13.59 15.96 19.13 15.96 30.07 6.37 24.68 6.37 13.59"/><rect class="cls-5" x="-0.66" y="7.02" width="10.21" height="25.61" transform="translate(19.35 6.02) rotate(59.84)"/><rect class="cls-6" x="7.13" y="14.3" width="10.21" height="25.61" transform="matrix(0.5, 0.86, -0.86, 0.5, 29.52, 2.91)"/></g><polygon class="cls-7" points="18.18 1.34 32.03 9.49 18.18 17.6 4.16 9.49 18.18 1.34"/><path class="cls-8" d="M114.75,7.68v22h-4.33L97.24,14.59V29.7H92.9v-22h4.34L110.42,22.8V7.68h4.33Z"/><path class="cls-8" d="M40.07,25.35L55.31,12.14H40.07V7.74h22v4.4l-15,13.21h15v4.4h-22v-4.4Z"/><path class="cls-8" d="M66.48,7.74h22v22h-22v-22Zm17.61,4.4H70.89V25.35H84.1V12.14Z"/><path class="cls-8" d="M140.49,12.11H118.91V7.74h21.58v4.37Zm0,8.74H118.91V16.48h21.58v4.37Zm0,8.7H118.91V25.18h21.58v4.37Z"/></svg>